PathFileType  4	(X/Y/Z) C:\Users\antoi\Documents\MyRepositories\mobilecap\ResultsAnalysis
DataRate	CameraRate	NumFrames	NumMarkers	Units	OrigDataRate	OrigDataStartFrame	OrigNumFrames
100.0	100.0	6	51	mm	100.0	36	142
Frame#	Time	r_knee			r_shank_antsup			r_ankle			r_calc			r_5meta			r_toe			L_knee			L_shank_antsup			L_ankle			L_calc			L_5meta			L_toe			r_sh2			r_sh3			r_sh4			L_sh2			L_sh3			r_thigh1			r_thigh2			r_thigh3			r_thigh4			r_thigh5			L_thigh1			L_thigh2			L_thigh3			L_thigh4			r.ASIS			r.PSIS			L.ASIS			L.PSIS			C7			R_Shoulder			L_Shoulder			R_Sternum			L_Sternum			R_humerus			R_elbow_med			R_elbow_lat			R_forearm			R_wrist_radius			R_wrist_ulna			L_humerus			L_elbow_med			L_elbow_lat			L_forearm			L_wrist_radius			L_wrist_ulna			R_HJC			L_HJC			R_HJC_reg			L_HJC_reg			
		X1	Y1	Z1	X2	Y2	Z2	X3	Y3	Z3	X4	Y4	Z4	X5	Y5	Z5	X6	Y6	Z6	X7	Y7	Z7	X8	Y8	Z8	X9	Y9	Z9	X10	Y10	Z10	X11	Y11	Z11	X12	Y12	Z12	X13	Y13	Z13	X14	Y14	Z14	X15	Y15	Z15	X16	Y16	Z16	X17	Y17	Z17	X18	Y18	Z18	X19	Y19	Z19	X20	Y20	Z20	X21	Y21	Z21	X22	Y22	Z22	X23	Y23	Z23	X24	Y24	Z24	X25	Y25	Z25	X26	Y26	Z26	X27	Y27	Z27	X28	Y28	Z28	X29	Y29	Z29	X30	Y30	Z30	X31	Y31	Z31	X32	Y32	Z32	X33	Y33	Z33	X34	Y34	Z34	X35	Y35	Z35	X36	Y36	Z36	X37	Y37	Z37	X38	Y38	Z38	X39	Y39	Z39	X40	Y40	Z40	X41	Y41	Z41	X42	Y42	Z42	X43	Y43	Z43	X44	Y44	Z44	X45	Y45	Z45	X46	Y46	Z46	X47	Y47	Z47	X48	Y48	Z48	X49	Y49	Z49	X50	Y50	Z50	X51	Y51	Z51	

36	0.35000000	246.65145	469.60561	-79.88884	241.72776	396.12248	-58.61115	167.77131	100.93617	-109.61789	96.82854	71.07915	-153.27763	263.40627	42.56400	-82.22288	311.13477	60.82801	-135.13560	415.40125	493.28886	-391.72031	421.78768	418.52457	-389.67923	246.41146	168.30065	-329.51352	171.26257	176.57731	-280.34343	301.72823	74.36838	-343.47473	359.80494	82.25679	-294.68858	218.85832	285.74796	-59.13380	170.75476	409.42983	-79.76604	141.11890	297.77134	-86.19722	345.53721	464.39244	-404.32227	291.51524	355.67175	-392.51988	331.74453	784.04801	-76.98596	336.45561	669.56641	-70.22588	282.98894	648.80747	-33.13037	229.05880	782.52437	-24.48740	226.76354	665.92832	-37.17737	352.45235	778.52670	-387.41289	419.54275	656.53074	-397.30424	252.52843	728.05577	-404.39936	326.80791	603.69211	-405.20980	322.11364	928.62859	-91.13495	136.79516	937.78554	-166.98637	320.13294	919.00127	-349.30935	133.83769	925.14705	-272.73532	216.80835	1402.46409	-213.13339	283.80321	1343.16670	-64.42020	260.95251	1345.24456	-381.15498	327.14726	1311.53243	-202.98707	324.78167	1312.02428	-246.88046	318.70274	1108.62173	18.16197	268.70443	1000.53974	-14.56262	302.51158	1024.61740	43.98589	370.38750	921.85184	51.80204	407.19109	808.27569	55.72445	370.34162	798.37580	78.19041	285.77592	1215.72375	-435.25013	216.34756	1005.19212	-406.11994	230.97219	1015.30752	-464.99735	291.74332	923.24456	-482.57639	321.58500	801.11081	-475.04713	288.10272	788.50044	-489.05655	258.91845	850.05355	-116.77553	261.23564	843.82037	-316.95699	260.75814	852.96622	-116.81561	256.02657	832.73643	-286.05854	
37	0.36000000	251.78047	469.66673	-78.99295	245.87704	396.13468	-57.78619	168.35888	101.62219	-109.41544	97.28859	72.30179	-153.20948	263.46996	42.40732	-82.05170	311.56953	60.60585	-134.77442	430.50131	494.90698	-391.37160	438.94122	420.66876	-390.18087	277.09721	161.72708	-329.14064	203.09218	165.30423	-277.72825	336.43878	71.07068	-346.22390	395.53764	81.13610	-298.92060	221.61863	286.05464	-58.44043	175.24009	410.35061	-79.11979	144.15817	298.91516	-85.70376	360.39583	463.02344	-402.63047	311.74312	351.89401	-390.92192	340.60833	783.28975	-75.63752	344.07074	668.80370	-68.92027	290.13051	648.59310	-32.15458	237.76570	782.79903	-23.68681	234.22660	666.23352	-36.44935	363.67366	779.27883	-386.36145	432.39619	658.24756	-396.49218	264.59576	727.68358	-404.00017	340.48445	604.22745	-405.15210	332.32742	928.43978	-90.34334	147.30307	937.75724	-166.55436	331.05897	918.28866	-348.61204	144.60373	924.40905	-272.18337	227.87058	1402.05001	-214.68595	295.50997	1343.42471	-66.04777	271.10690	1344.06030	-382.78673	337.97357	1310.98128	-204.74478	335.58421	1311.34083	-248.61937	333.21329	1109.84575	17.35548	283.41505	1001.04258	-13.59650	317.97642	1025.99516	44.33662	386.89504	923.86512	51.70539	424.90724	810.66011	55.90075	388.51511	800.55031	78.92877	295.19568	1214.13051	-436.65322	226.06762	1003.80158	-405.97855	240.05668	1013.76328	-465.07001	300.67163	921.64501	-483.02435	330.64329	799.54143	-475.21864	296.96810	786.84704	-488.78034	269.28703	849.90327	-115.88852	272.00861	843.13403	-316.04687	270.79397	853.41470	-115.72804	266.47160	832.03329	-284.91006	
38	0.37000000	257.23381	469.59720	-78.10984	250.31725	396.01925	-56.97344	168.96052	102.29099	-109.22717	97.74948	73.54293	-153.12926	263.53807	42.27618	-81.88059	311.99059	60.34418	-134.46474	444.91456	496.07261	-390.97676	455.45323	422.48126	-390.69253	307.79106	155.31566	-329.23509	235.19936	154.13952	-275.70069	371.01029	68.26599	-349.47510	430.95137	80.61439	-303.56761	224.61949	286.26808	-57.75528	180.02704	411.17626	-78.40314	147.39108	300.07572	-85.14623	374.73409	461.15858	-400.90308	331.69603	347.82745	-389.39257	349.56456	782.39216	-74.39858	351.83302	667.92074	-67.67258	297.48788	648.25388	-31.23682	246.57166	782.90046	-22.95879	241.86571	666.36744	-35.73928	374.65068	779.60370	-385.41995	444.79842	659.44365	-395.74991	276.36481	727.03746	-403.44339	353.65290	604.38489	-404.90971	342.57602	928.03746	-89.64877	157.86743	937.64826	-166.22671	342.02428	917.32839	-347.97177	155.38093	923.52529	-271.73140	238.93299	1401.48790	-216.39923	307.30463	1343.55434	-67.86121	281.27573	1342.71225	-384.55535	348.88173	1310.29195	-206.66353	346.40969	1310.47518	-250.52112	347.64493	1110.95866	16.33996	298.17973	1001.47924	-12.92849	333.36111	1027.26434	44.40316	403.32893	925.77937	51.39065	442.40451	812.90115	55.87421	406.40289	802.61239	79.45314	304.70911	1212.36735	-438.10445	235.93623	1002.23092	-405.90212	249.28355	1012.08534	-465.20198	309.78804	919.85162	-483.46209	339.84436	797.77997	-475.39527	306.00411	785.02149	-488.50668	279.63617	849.58495	-115.07407	282.76769	842.23484	-315.20549	280.82326	853.77496	-114.67632	276.83891	831.14160	-283.75208	
39	0.38000000	262.95409	469.37574	-77.24763	255.00993	395.76138	-56.18229	169.57031	102.94392	-109.06862	98.23434	74.78894	-153.05346	263.61095	42.17082	-81.71101	312.39880	60.04808	-134.20809	458.65678	496.75912	-390.49293	471.42417	423.95564	-391.15152	338.49716	149.09669	-329.90167	267.48875	143.16156	-274.49740	405.52364	65.96261	-353.12318	466.03785	80.75145	-308.42988	227.82470	286.37177	-57.09067	185.04619	411.87667	-77.66727	150.79751	301.23104	-84.55935	388.65490	458.78805	-399.17799	351.46191	343.46980	-388.03809	358.61456	781.35028	-73.28849	359.73322	666.90249	-66.48551	305.05355	647.78071	-30.40463	255.45372	782.82818	-22.30363	249.66936	666.31725	-35.05173	385.37727	779.49231	-384.65878	456.74136	660.09612	-395.11870	287.78508	726.07354	-402.69498	366.26845	604.11570	-404.42187	352.87195	927.41860	-89.06030	168.48009	937.43968	-165.99957	353.04925	916.12464	-347.38026	166.16242	922.52771	-271.37821	250.02052	1400.78737	-218.26675	319.21541	1343.56054	-69.85912	291.46028	1341.19924	-386.45205	359.90155	1309.48453	-208.74542	357.25480	1309.44063	-252.58463	361.96662	1111.95588	15.15145	312.95058	1001.84532	-12.55751	348.61807	1028.40166	44.18603	419.61599	927.56286	50.86069	459.65971	814.98847	55.64014	424.00824	804.55476	79.74942	314.31981	1210.45580	-439.59835	245.96415	1000.48600	-405.86862	258.69475	1010.24919	-465.38321	319.09656	917.86948	-483.89200	349.20523	795.83365	-475.58552	315.22246	783.02932	-488.24182	289.96733	849.09212	-114.33815	293.51577	841.13469	-314.43931	290.88131	853.98426	-113.70034	287.16582	830.08104	-282.62313	
40	0.39000000	268.89309	468.99192	-76.41809	259.92858	395.35511	-55.42532	170.19622	103.59569	-108.95104	98.76078	76.03534	-152.99732	263.68721	42.08876	-81.54678	312.80064	59.73268	-133.99436	471.76953	496.94625	-389.88338	486.95804	425.10096	-391.49656	369.22289	143.11971	-331.21714	299.87638	132.46649	-274.30121	440.03036	64.17792	-357.08676	500.78150	81.57350	-313.35556	231.20515	286.35925	-56.46143	190.24020	412.43397	-76.96039	154.37170	302.35334	-83.97488	402.27571	455.91802	-397.51546	371.12826	338.84068	-386.97802	367.74407	780.16223	-72.32018	367.75409	665.73791	-65.37509	312.79999	647.16710	-29.67227	264.39008	782.58526	-21.72148	257.61578	666.08051	-34.39264	395.86936	778.95087	-384.14960	468.22843	660.19142	-394.64258	298.82398	724.76767	-401.73519	378.30015	603.39501	-403.64279	363.22547	926.59210	-88.58793	179.12988	937.11405	-165.86810	364.13247	914.68725	-346.84805	176.95656	921.45400	-271.12360	261.15772	1399.95481	-220.28201	331.25989	1343.44960	-72.03792	301.65498	1339.51462	-388.46890	371.04681	1308.57081	-210.99338	368.12323	1308.25407	-254.80644	376.16699	1112.82974	13.81551	327.66967	1002.13601	-12.47574	363.71858	1029.39295	43.69767	435.69386	929.18673	50.12832	476.64989	816.91161	55.20445	441.33046	806.36663	79.81174	324.02165	1208.40712	-441.14155	256.15097	998.57627	-405.85656	268.32050	1008.22532	-465.60433	328.59189	915.70081	-484.32265	358.73279	793.70254	-475.79805	324.62558	780.86464	-487.99111	300.28578	848.42637	-113.69229	304.25032	839.85143	-313.76052	300.98598	853.97199	-112.85510	297.50111	828.86898	-281.59148	
41	0.40000000	275.01904	468.44664	-75.63810	265.05725	394.80503	-54.71847	170.86087	104.27542	-108.87887	99.33798	77.29069	-152.97255	263.76657	42.02457	-81.39601	313.20133	59.41116	-133.81093	484.31055	496.62712	-389.12169	502.14609	425.94012	-391.67421	399.96724	137.45492	-333.21776	332.29056	122.16069	-275.21797	474.53283	62.94693	-361.31525	535.14513	83.08229	-318.25165	234.74138	286.23640	-55.88539	195.57524	412.84644	-76.32035	158.11490	303.42137	-83.42054	415.70987	452.57225	-395.98819	390.76825	333.98260	-386.32118	376.92985	778.83078	-71.49464	375.87511	664.42485	-64.36455	320.68188	646.41287	-29.03311	273.36706	782.17789	-21.22001	265.67486	665.66714	-33.77496	406.16662	777.99622	-383.95608	479.27648	659.72215	-394.36267	309.47813	723.12564	-400.56894	389.74075	602.22544	-402.55510	373.63857	925.57124	-88.23565	189.80945	936.66122	-165.83155	375.26399	913.03765	-346.39648	187.78590	920.33868	-270.97309	272.36593	1398.99338	-222.43888	343.44469	1343.22829	-74.39235	311.85410	1337.65163	-390.60007	382.32090	1307.55720	-213.40654	379.02767	1306.93409	-257.18040	390.25112	1113.57087	12.34615	342.28359	1002.34808	-12.67042	378.65209	1030.23520	42.96062	451.52301	930.63116	49.21270	493.35511	818.66177	54.58023	458.36214	808.03421	79.64390	333.80688	1206.22303	-442.74874	266.48057	996.51535	-405.85746	278.16575	1005.99422	-465.86139	338.26056	913.34677	-484.76779	368.42623	791.38409	-476.03868	334.21219	778.51562	-487.75836	310.59798	847.59371	-113.15225	314.97287	838.41000	-313.18580	311.13593	853.68361	-112.19080	307.89087	827.52109	-280.73060	
